<svg id="_x33_0" enable-background="new 0 0 64 64" height="512" viewBox="0 0 64 64" width="512" xmlns="http://www.w3.org/2000/svg"><path d="m41.944 9.331-3.944-2.871-6.173 4.493-2.008 12.047h5.854l-2.784 9.705 14.444-15.89-7.937.158z" fill="#f0bc5e"/><path d="m62.957 19.503c-.135-.8-.569-1.493-1.208-1.941l-21.999-15.999c-.396-.29-.861-.476-1.363-.538-.25-.027-.509-.029-.792.002-.457.057-.914.237-1.344.534l-21.987 15.99c-.652.458-1.085 1.151-1.221 1.95-.136.798.047 1.595.513 2.24.929 1.298 2.859 1.639 4.191.696l1.253-.91v17.473c0 1.067.574 2.063 1.499 2.598l1.001-1.73c-.308-.18-.5-.512-.5-.868v-18.929l17-12.374 17 12.374v18.929c0 .552-.449 1-1 1h-18.494v2h18.494c1.654 0 3-1.346 3-3v-17.474l1.264.92c.512.363 1.112.554 1.737.554.965 0 1.878-.47 2.442-1.257.467-.647.649-1.443.514-2.24zm-2.137 1.072-.002.003c-.312.434-.978.534-1.389.243l-21.429-15.598-21.418 15.59c-.44.312-1.086.201-1.402-.238-.152-.21-.21-.472-.165-.738.046-.273.185-.498.413-.658l21.98-15.985c.146-.102.297-.164.419-.18.111-.012.251-.01.329-.002.15.019.289.074.416.167l22.014 16.01c.215.15.353.375.399.649.045.266-.013.527-.165.737z"/><path d="m9 63c-2.757 0-5-2.243-5-5l.975-19.519-3.975-2.981v-7.914l2.586-2.586h3.414v6h4v-6h3.414l2.586 2.586v7.914l-3.975 2.981.973 19.469c.002 2.807-2.241 5.05-4.998 5.05zm-6-28.5 4.025 3.019-1.026 20.531c.001 1.604 1.347 2.95 3.001 2.95s3-1.346 3-3l-1.025-20.481 4.025-3.019v-6.086l-1.414-1.414h-.586v6h-8v-6h-.586l-1.414 1.414z"/><path d="m8 57h2v2h-2z"/><path d="m40 52v-6h-2.466c-.176-.558-.4-1.1-.672-1.619l1.745-1.745-4.243-4.242-1.745 1.745c-.52-.272-1.061-.497-1.619-.673v-2.466h-6v2.466c-.558.176-1.099.4-1.619.673l-1.745-1.745-4.243 4.242 1.745 1.745c-.272.52-.497 1.062-.672 1.619h-2.466v6h2.466c.176.558.4 1.1.672 1.619l-1.745 1.745 4.243 4.242 1.745-1.745c.52.272 1.061.497 1.619.673v2.466h6v-2.466c.558-.176 1.099-.4 1.619-.673l1.745 1.745 4.243-4.242-1.745-1.745c.272-.52.497-1.062.672-1.619zm-12 1c-2.209 0-4-1.791-4-4s1.791-4 4-4 4 1.791 4 4-1.791 4-4 4z" fill="#f0bc5e"/><path d="m28 54c-2.757 0-5-2.243-5-5s2.243-5 5-5 5 2.243 5 5-2.243 5-5 5zm0-8c-1.654 0-3 1.346-3 3s1.346 3 3 3 3-1.346 3-3-1.346-3-3-3z"/></svg>